<?xml version="1.0" standalone="no"?>
<!DOCTYPE svg PUBLIC "-//W3C//DTD SVG 20010904//EN"
 "http://www.w3.org/TR/2001/REC-SVG-20010904/DTD/svg10.dtd">
<svg version="1.0" xmlns="http://www.w3.org/2000/svg"
 width="900.000000pt" height="900.000000pt" viewBox="0 0 900.000000 900.000000"
 preserveAspectRatio="xMidYMid meet">
<metadata>
Created by potrace 1.10, written by Peter Selinger 2001-2011
</metadata>
<g transform="translate(0.000000,900.000000) scale(0.100000,-0.100000)"
fill="#000000" stroke="none">
<path d="M657 6203 c-49 -13 -80 -161 -45 -215 23 -35 98 -48 308 -55 145 -5
167 -4 179 11 7 9 19 16 25 16 19 0 91 -73 108 -110 48 -103 89 -194 152 -335
40 -90 51 -95 224 -105 81 -5 186 -10 234 -10 47 0 93 -3 102 -6 14 -5 16 -39
16 -269 0 -214 3 -265 14 -274 9 -7 40 -11 78 -9 l63 3 3 325 c1 179 0 334 -2
345 -12 46 -35 50 -315 55 -221 4 -265 7 -272 20 -5 8 -22 47 -39 85 -17 39
-38 82 -46 97 -8 14 -14 36 -14 48 l0 21 1093 -6 c600 -4 1128 -10 1172 -15
70 -7 82 -12 102 -37 49 -61 36 -138 -30 -187 -28 -21 -40 -21 -692 -26 -634
-5 -664 -6 -684 -24 -21 -19 -21 -26 -21 -356 0 -379 -7 -350 79 -350 83 0 80
-10 83 290 l3 265 605 5 c333 3 616 10 630 14 53 19 132 81 170 134 40 55 40
55 40 151 0 88 -3 100 -30 148 -34 60 -75 93 -145 121 -48 19 -92 20 -1245 27
-784 5 -1202 11 -1215 17 -11 6 -43 32 -70 58 -73 68 -121 94 -205 113 -72 15
-374 30 -413 20z"/>
<path d="M4847 5414 c-8 -9 -7 -1367 2 -1774 l6 -285 109 -3 c71 -2 113 1 122
9 11 9 14 74 14 363 0 375 7 448 50 539 84 176 368 225 510 86 81 -78 83 -88
89 -574 l6 -420 120 0 120 0 0 460 c0 419 -2 465 -18 515 -38 114 -88 190
-159 244 -98 75 -170 96 -323 96 -161 0 -224 -20 -329 -102 -27 -21 -52 -38
-57 -38 -5 0 -10 199 -11 443 l-3 442 -121 3 c-66 1 -123 -1 -127 -4z"/>
<path d="M4018 4650 c-98 -34 -182 -106 -229 -195 -9 -16 -22 -63 -29 -102
-25 -136 21 -276 113 -345 36 -27 160 -88 180 -88 6 0 32 -6 57 -14 25 -8 74
-23 110 -32 96 -26 145 -50 174 -85 36 -43 42 -73 21 -119 -23 -52 -41 -67
-101 -85 -62 -19 -118 -19 -187 -1 -71 18 -104 36 -172 91 -30 25 -59 45 -64
45 -18 0 -151 -165 -151 -187 0 -15 17 -36 53 -64 133 -106 321 -154 501 -129
180 25 301 114 356 263 18 48 21 74 18 155 -3 82 -7 105 -31 151 -16 30 -38
65 -50 76 -49 49 -145 96 -257 128 -30 9 -82 23 -115 33 -162 45 -199 69 -210
135 -10 56 10 104 52 130 30 19 49 22 122 21 98 -1 162 -23 244 -86 71 -54 82
-50 150 48 31 47 57 91 57 100 0 36 -133 121 -245 157 -80 25 -296 25 -367 -1z"/>
<path d="M6655 4653 c-200 -62 -348 -187 -430 -363 -48 -102 -56 -142 -56
-278 -1 -134 4 -163 49 -277 63 -159 228 -307 412 -368 161 -54 366 -37 505
40 22 13 51 28 65 33 48 21 193 182 227 250 50 104 55 120 68 223 12 104 1
260 -25 322 -42 104 -80 165 -145 230 -100 102 -178 148 -314 189 -71 21 -285
21 -356 -1z m285 -242 c88 -26 120 -44 185 -103 38 -34 66 -73 88 -117 28 -58
32 -78 35 -170 4 -106 1 -119 -47 -220 -27 -59 -122 -145 -196 -180 -67 -32
-71 -33 -184 -29 -105 3 -122 6 -174 33 -61 30 -154 121 -183 178 -24 45 -54
156 -54 197 0 48 25 145 52 200 28 58 120 150 178 178 118 56 193 64 300 33z"/>
<path d="M8145 4651 c-60 -19 -133 -61 -180 -102 -42 -37 -57 -31 -49 20 4 22
1 48 -5 60 -11 19 -20 21 -121 21 -94 0 -110 -2 -117 -17 -4 -10 -6 -427 -3
-928 l5 -910 114 -3 c75 -2 118 1 127 9 11 9 14 71 14 335 0 220 3 325 11 330
6 3 23 -5 37 -19 47 -44 160 -93 250 -107 271 -42 504 106 622 395 22 53 40
177 40 275 0 167 -35 305 -105 415 -25 41 -125 145 -150 156 -11 5 -35 18 -53
29 -73 44 -145 60 -269 59 -80 -1 -134 -6 -168 -18z m245 -239 c78 -25 111
-45 154 -92 146 -162 133 -502 -26 -645 -78 -70 -125 -88 -238 -88 -110 0
-157 16 -233 84 -89 78 -126 174 -127 332 0 131 21 205 84 293 81 112 244 162
386 116z"/>
<path d="M3100 4640 c-152 -21 -257 -108 -302 -250 -40 -126 -5 -259 92 -347
19 -18 40 -33 45 -33 6 0 16 -5 23 -12 14 -14 84 -39 257 -94 154 -49 216
-116 214 -228 -1 -82 -43 -147 -120 -186 -52 -27 -212 -28 -284 -2 -72 26
-125 56 -163 92 -38 37 -46 33 -87 -35 -28 -48 -31 -70 -12 -79 6 -3 26 -15
42 -26 78 -51 152 -78 257 -95 103 -16 231 -2 310 33 64 28 134 95 165 156 23
44 25 62 26 161 0 125 -15 167 -85 237 -36 36 -172 108 -204 108 -16 0 -85 21
-159 48 -89 32 -127 56 -156 95 -25 35 -29 49 -29 109 0 119 48 179 170 212
102 29 230 3 312 -62 9 -8 22 -11 28 -7 22 13 69 97 63 111 -7 18 -62 47 -139
73 -68 23 -185 32 -264 21z"/>
<path d="M91 4616 c-7 -8 -11 -37 -9 -68 l3 -53 180 -5 180 -5 3 -554 c1 -400
5 -558 14 -568 8 -10 29 -13 72 -11 l61 3 5 565 5 565 185 5 185 5 5 47 c3 26
2 56 -2 68 -7 20 -13 20 -441 20 -363 0 -436 -2 -446 -14z"/>
<path d="M1165 4618 c-3 -7 -4 -294 -3 -638 l3 -625 60 -3 c47 -3 62 0 72 14
10 14 13 84 13 286 l0 268 323 -2 322 -3 5 -270 c3 -148 9 -276 13 -282 5 -8
29 -13 57 -13 88 0 80 -65 80 635 l0 623 -22 6 c-38 10 -103 7 -116 -6 -9 -9
-12 -84 -12 -274 0 -145 -4 -265 -8 -268 -4 -2 -149 -6 -321 -7 -261 -2 -314
0 -322 12 -5 8 -9 131 -8 276 0 144 -2 267 -6 273 -9 15 -124 13 -130 -2z"/>
<path d="M2386 4611 c-19 -7 -19 -26 -17 -697 2 -531 6 -710 16 -779 28 -180
69 -244 194 -303 l56 -27 470 0 c466 0 470 0 505 22 50 31 70 70 70 137 0 43
-6 66 -25 96 -44 70 -47 70 -496 70 -274 0 -406 -4 -423 -11 -27 -13 -44 -46
-48 -99 -3 -32 -6 -35 -32 -33 -38 3 -69 33 -98 96 l-23 52 -3 730 c-3 822 4
756 -81 754 -25 0 -55 -4 -65 -8z"/>
<path d="M1850 3130 c-107 -3 -183 -10 -195 -17 -18 -11 -20 -22 -20 -131 0
-113 1 -122 24 -146 34 -36 108 -48 270 -44 110 2 142 6 164 21 l27 17 0 135
c0 132 0 134 -26 154 -15 12 -36 20 -48 19 -11 -1 -100 -5 -196 -8z"/>
</g>
</svg>
